<svg xmlns="http://www.w3.org/2000/svg" xml:space="preserve" stroke-linecap="round"
    stroke-linejoin="round" stroke-miterlimit="10" clip-rule="evenodd" viewBox="0 0 24 24"><path fill="#167b65" d="M1.968 5.817a3.25 3.25 0 0 1 3.25-3.25h13.5a3.25 3.25 0 0 1 3.25 3.25v11.5a3.25 3.25 0 0 1-3.25 3.25h-13.5a3.25 3.25 0 0 1-3.25-3.25v-11.5Zm3.25-1.75a1.75 1.75 0 0 0-1.75 1.75v11.5c0 .967.784 1.75 1.75 1.75h13.5a1.75 1.75 0 0 0 1.75-1.75v-11.5a1.75 1.75 0 0 0-1.75-1.75h-13.5Zm3.75 4.75v5.5a1 1 0 0 0 1.482.877l5-2.75a1 1 0 0 0 0-1.753l-5-2.75a1 1 0 0 0-1.482.877Z"/><path fill="#fff" d="M17.344 17.015h4.624v4.273h-4.624v-4.273Z"/><path fill="#fff" d="M20.282 19.649h.165v.018h-.165v-.018Z"/><path fill="#167b65" d="M19.382 22.49a3.362 3.362 0 1 0 0-6.725 3.362 3.362 0 0 0 0 6.724Zm-.24-4.803a.24.24 0 0 1 .48 0v1.2H20.822a.24.24 0 0 1 0 .48h-1.2v1.201a.24.24 0 0 1-.48 0v-1.2H17.94a.24.24 0 0 1 0-.48h1.2v-1.201Z"/></svg>